<svg width="941" height="328" viewBox="0 0 941 328" fill="none" xmlns="http://www.w3.org/2000/svg">
<circle cx="164.501" cy="163.99" r="158.737" stroke="#C6C6C6" stroke-width="10.5047"/>
<path fill-rule="evenodd" clip-rule="evenodd" d="M169.754 282.345C168.012 282.421 166.261 282.459 164.501 282.459C99.0727 282.459 46.0321 229.418 46.0321 163.99C46.0321 98.5608 99.0727 45.5203 164.501 45.5203C229.93 45.5203 282.971 98.5608 282.971 163.99C282.971 220.393 243.554 267.591 190.763 279.538V290.288C249.4 278.159 293.476 226.221 293.476 163.99C293.476 92.7593 235.732 35.0156 164.501 35.0156C93.2711 35.0156 35.5275 92.7593 35.5275 163.99C35.5275 235.22 93.2711 292.964 164.501 292.964C166.261 292.964 168.012 292.928 169.754 292.859V282.345Z" fill="#404040"/>
<line x1="164.501" y1="292.964" x2="164.501" y2="213.547" stroke="#404040" stroke-width="10.5047"/>
<path d="M164.209 99.2109L164.209 135.413" stroke="#72777C" stroke-width="7.58671"/>
<circle cx="164.454" cy="90.4103" r="11.0883" transform="rotate(126 164.454 90.4103)" stroke="#72777C" stroke-width="7.00311"/>
<line x1="189.649" y1="125.441" x2="172.742" y2="142.344" stroke="#72777C" stroke-width="7.58671"/>
<line x1="164.209" y1="159.904" x2="164.209" y2="196.087" stroke="#72777C" stroke-width="7.58671"/>
<circle cx="164.502" cy="147.168" r="11.0883" transform="rotate(126 164.502 147.168)" stroke="#72777C" stroke-width="7.00311"/>
<circle cx="195.875" cy="119.59" r="11.0883" transform="rotate(126 195.875 119.59)" stroke="#404040" stroke-width="7.00311"/>
<line y1="-3.79335" x2="23.9072" y2="-3.79335" transform="matrix(0.70719 0.707023 0.707023 -0.70719 142.036 122.758)" stroke="#72777C" stroke-width="7.58671"/>
<circle r="11.0883" transform="matrix(0.587786 0.809017 0.809017 -0.587786 133.128 119.589)" stroke="#72777C" stroke-width="7.00311"/>
<line x1="189.184" y1="182.541" x2="172.277" y2="199.444" stroke="#787878" stroke-width="7.58671"/>
<line y1="-3.79335" x2="23.9072" y2="-3.79335" transform="matrix(0.70719 0.707023 0.707023 -0.70719 204.317 179.858)" stroke="#72777C" stroke-width="7.58671"/>
<circle r="11.0883" transform="matrix(0.587786 0.809017 0.809017 -0.587786 226.318 204.609)" stroke="#404040" stroke-width="7.00311"/>
<line x1="220.092" y1="154.622" x2="203.185" y2="171.525" stroke="#72777C" stroke-width="7.58671"/>
<circle cx="195.41" cy="176.69" r="11.0883" transform="rotate(126 195.41 176.69)" stroke="#72777C" stroke-width="7.00311"/>
<circle cx="226.318" cy="148.771" r="11.0883" transform="rotate(126 226.318 148.771)" stroke="#72777C" stroke-width="7.00311"/>
<line y1="-3.79335" x2="23.9072" y2="-3.79335" transform="matrix(0.70719 0.707023 0.707023 -0.70719 142.5 179.858)" stroke="#787878" stroke-width="7.58671"/>
<line x1="127.367" y1="182.541" x2="110.46" y2="199.444" stroke="#787878" stroke-width="7.58671"/>
<circle cx="102.684" cy="204.609" r="11.0883" transform="rotate(126 102.684 204.609)" stroke="#787878" stroke-width="7.00311"/>
<line y1="-3.79335" x2="23.9072" y2="-3.79335" transform="matrix(0.70719 0.707023 0.707023 -0.70719 111.592 151.939)" stroke="#787878" stroke-width="7.58671"/>
<circle r="11.0883" transform="matrix(0.587786 0.809017 0.809017 -0.587786 133.593 176.69)" stroke="#404040" stroke-width="7.00311"/>
<circle r="11.0883" transform="matrix(0.587786 0.809017 0.809017 -0.587786 102.684 148.771)" stroke="#72777C" stroke-width="7.00311"/>
<circle cx="164.502" cy="203.926" r="11.0883" transform="rotate(126 164.502 203.926)" stroke="#72777C" stroke-width="7.00311"/>
<path d="M416.33 146.896C411.645 146.896 407.447 146.135 403.736 144.614C400.024 143.093 397.043 140.842 394.792 137.861C392.601 134.879 391.445 131.29 391.324 127.091H407.934C408.177 129.464 408.998 131.29 410.398 132.567C411.797 133.784 413.622 134.393 415.874 134.393C418.186 134.393 420.011 133.875 421.349 132.841C422.688 131.746 423.357 130.255 423.357 128.369C423.357 126.787 422.81 125.479 421.715 124.445C420.68 123.411 419.372 122.559 417.79 121.889C416.269 121.22 414.079 120.46 411.219 119.608C407.082 118.33 403.705 117.052 401.089 115.775C398.473 114.497 396.222 112.611 394.335 110.116C392.449 107.622 391.506 104.367 391.506 100.351C391.506 94.3887 393.666 89.7343 397.986 86.3879C402.306 82.9808 407.934 81.2772 414.87 81.2772C421.927 81.2772 427.616 82.9808 431.936 86.3879C436.256 89.7343 438.568 94.4191 438.872 100.443H421.988C421.867 98.3739 421.106 96.7616 419.707 95.6056C418.307 94.3887 416.512 93.7803 414.322 93.7803C412.436 93.7803 410.915 94.2974 409.759 95.3318C408.603 96.3052 408.025 97.735 408.025 99.6211C408.025 101.69 408.998 103.302 410.945 104.458C412.892 105.614 415.934 106.861 420.072 108.2C424.209 109.599 427.555 110.938 430.111 112.216C432.727 113.493 434.978 115.349 436.864 117.783C438.75 120.216 439.693 123.35 439.693 127.183C439.693 130.833 438.75 134.149 436.864 137.13C435.039 140.112 432.362 142.485 428.833 144.249C425.304 146.013 421.136 146.896 416.33 146.896ZM480.418 146.257L464.904 124.901V146.257H449.297V78.7218H464.904V116.049L480.327 95.3318H499.584L478.411 120.886L499.766 146.257H480.418ZM513.562 90.0385C510.824 90.0385 508.573 89.2475 506.809 87.6656C505.105 86.0229 504.253 84.0151 504.253 81.6422C504.253 79.2085 505.105 77.2007 506.809 75.6188C508.573 73.9761 510.824 73.1547 513.562 73.1547C516.239 73.1547 518.429 73.9761 520.133 75.6188C521.897 77.2007 522.78 79.2085 522.78 81.6422C522.78 84.0151 521.897 86.0229 520.133 87.6656C518.429 89.2475 516.239 90.0385 513.562 90.0385ZM521.319 95.3318V146.257H505.713V95.3318H521.319ZM548.235 78.7218V146.257H532.629V78.7218H548.235ZM575.151 78.7218V146.257H559.545V78.7218H575.151ZM607.177 146.987C602.736 146.987 598.781 146.226 595.313 144.705C591.845 143.184 589.107 141.116 587.099 138.499C585.091 135.822 583.966 132.841 583.722 129.556H599.146C599.328 131.32 600.15 132.75 601.61 133.845C603.07 134.94 604.865 135.488 606.995 135.488C608.941 135.488 610.432 135.123 611.466 134.393C612.562 133.602 613.109 132.598 613.109 131.381C613.109 129.921 612.349 128.856 610.828 128.187C609.307 127.457 606.842 126.666 603.435 125.814C599.785 124.962 596.743 124.08 594.309 123.167C591.875 122.194 589.776 120.703 588.012 118.695C586.247 116.627 585.365 113.858 585.365 110.39C585.365 107.47 586.156 104.823 587.738 102.45C589.381 100.017 591.754 98.1001 594.856 96.7007C598.02 95.3013 601.762 94.6016 606.082 94.6016C612.47 94.6016 617.49 96.1836 621.14 99.3474C624.852 102.511 626.981 106.709 627.529 111.942H613.109C612.866 110.177 612.075 108.778 610.736 107.744C609.459 106.709 607.755 106.192 605.626 106.192C603.8 106.192 602.401 106.557 601.427 107.287C600.454 107.957 599.967 108.9 599.967 110.116C599.967 111.577 600.728 112.672 602.249 113.402C603.831 114.132 606.264 114.862 609.55 115.592C613.322 116.566 616.395 117.539 618.768 118.513C621.14 119.425 623.209 120.946 624.973 123.076C626.799 125.145 627.742 127.943 627.803 131.472C627.803 134.453 626.951 137.13 625.247 139.503C623.604 141.815 621.201 143.641 618.037 144.979C614.934 146.318 611.314 146.987 607.177 146.987Z" fill="#404040"/>
<path d="M446.447 242.683H436.043L404.739 195.317V242.683H394.335V179.163H404.739L436.043 226.438V179.163H446.447V242.683ZM506.197 216.307C506.197 218.194 506.076 219.897 505.832 221.418H467.41C467.715 225.434 469.205 228.658 471.882 231.092C474.559 233.526 477.845 234.743 481.739 234.743C487.336 234.743 491.291 232.4 493.603 227.715H504.829C503.307 232.339 500.539 236.142 496.524 239.123C492.569 242.044 487.641 243.504 481.739 243.504C476.932 243.504 472.612 242.439 468.779 240.31C465.007 238.119 462.026 235.077 459.836 231.183C457.706 227.229 456.641 222.665 456.641 217.494C456.641 212.322 457.676 207.79 459.744 203.896C461.874 199.941 464.825 196.899 468.597 194.769C472.43 192.64 476.811 191.575 481.739 191.575C486.485 191.575 490.713 192.609 494.424 194.678C498.136 196.747 501.026 199.667 503.095 203.439C505.163 207.151 506.197 211.44 506.197 216.307ZM495.337 213.022C495.276 209.189 493.907 206.116 491.23 203.804C488.553 201.492 485.237 200.336 481.283 200.336C477.693 200.336 474.62 201.492 472.065 203.804C469.51 206.056 467.988 209.128 467.502 213.022H495.337ZM528.574 200.884V228.719C528.574 230.605 529 231.974 529.852 232.826C530.764 233.617 532.286 234.013 534.415 234.013H540.803V242.683H532.59C527.905 242.683 524.315 241.587 521.821 239.397C519.326 237.207 518.079 233.648 518.079 228.719V200.884H512.147V192.396H518.079V179.893H528.574V192.396H540.803V200.884H528.574ZM617.928 192.396L602.322 242.683H591.37L581.24 205.538L571.109 242.683H560.158L544.46 192.396H555.047L565.542 232.826L576.22 192.396H587.081L597.302 232.644L607.706 192.396H617.928ZM647.515 243.504C642.769 243.504 638.48 242.439 634.647 240.31C630.814 238.119 627.802 235.077 625.612 231.183C623.421 227.229 622.326 222.665 622.326 217.494C622.326 212.383 623.452 207.85 625.703 203.896C627.954 199.941 631.027 196.899 634.92 194.769C638.814 192.64 643.165 191.575 647.971 191.575C652.778 191.575 657.128 192.64 661.022 194.769C664.916 196.899 667.988 199.941 670.239 203.896C672.491 207.85 673.616 212.383 673.616 217.494C673.616 222.605 672.46 227.137 670.148 231.092C667.836 235.047 664.672 238.119 660.657 240.31C656.702 242.439 652.321 243.504 647.515 243.504ZM647.515 234.469C650.192 234.469 652.686 233.83 654.998 232.552C657.371 231.275 659.288 229.358 660.748 226.803C662.208 224.247 662.938 221.144 662.938 217.494C662.938 213.843 662.239 210.771 660.839 208.276C659.44 205.721 657.584 203.804 655.272 202.527C652.96 201.249 650.466 200.61 647.789 200.61C645.112 200.61 642.617 201.249 640.305 202.527C638.054 203.804 636.259 205.721 634.92 208.276C633.582 210.771 632.913 213.843 632.913 217.494C632.913 222.909 634.282 227.107 637.02 230.088C639.818 233.009 643.317 234.469 647.515 234.469ZM694.305 199.697C695.826 197.142 697.834 195.165 700.329 193.765C702.884 192.305 705.896 191.575 709.364 191.575V202.344H706.717C702.641 202.344 699.538 203.378 697.408 205.447C695.34 207.516 694.305 211.105 694.305 216.216V242.683H683.901V192.396H694.305V199.697ZM738.823 217.585L762.004 242.683H747.949L729.331 221.053V242.683H718.927V175.148H729.331V214.391L747.584 192.396H762.004L738.823 217.585Z" fill="#72777C"/>
</svg>
