<svg width="329" height="329" viewBox="0 0 329 329" fill="none" xmlns="http://www.w3.org/2000/svg">
<circle cx="164.553" cy="164.074" r="158.737" stroke="#D6CBFF" stroke-width="10.5047"/>
<path fill-rule="evenodd" clip-rule="evenodd" d="M169.806 282.429C168.064 282.505 166.313 282.543 164.553 282.543C99.1246 282.543 46.0841 229.502 46.0841 164.074C46.0841 98.6448 99.1246 45.6043 164.553 45.6043C229.982 45.6043 283.023 98.6448 283.023 164.074C283.023 220.477 243.606 267.675 190.815 279.622V290.372C249.452 278.243 293.527 226.305 293.527 164.074C293.527 92.8433 235.784 35.0996 164.553 35.0996C93.3231 35.0996 35.5794 92.8433 35.5794 164.074C35.5794 235.304 93.3231 293.048 164.553 293.048C166.313 293.048 168.064 293.012 169.806 292.943V282.429Z" fill="#7B58E5"/>
<line x1="164.553" y1="293.048" x2="164.553" y2="213.631" stroke="#7B58E5" stroke-width="10.5047"/>
<path d="M164.261 99.2949L164.261 135.497" stroke="#72777C" stroke-width="7.58671"/>
<circle cx="164.506" cy="90.4943" r="11.0883" transform="rotate(126 164.506 90.4943)" stroke="#72777C" stroke-width="7.00311"/>
<line x1="189.701" y1="125.525" x2="172.794" y2="142.428" stroke="#72777C" stroke-width="7.58671"/>
<line x1="164.261" y1="159.988" x2="164.261" y2="196.171" stroke="#72777C" stroke-width="7.58671"/>
<circle cx="164.554" cy="147.252" r="11.0883" transform="rotate(126 164.554 147.252)" stroke="#72777C" stroke-width="7.00311"/>
<circle cx="195.927" cy="119.674" r="11.0883" transform="rotate(126 195.927 119.674)" stroke="#7B58E5" stroke-width="7.00311"/>
<line y1="-3.79335" x2="23.9072" y2="-3.79335" transform="matrix(0.70719 0.707023 0.707023 -0.70719 142.088 122.842)" stroke="#72777C" stroke-width="7.58671"/>
<circle r="11.0883" transform="matrix(0.587786 0.809017 0.809017 -0.587786 133.18 119.673)" stroke="#72777C" stroke-width="7.00311"/>
<line x1="189.236" y1="182.625" x2="172.329" y2="199.528" stroke="#787878" stroke-width="7.58671"/>
<line y1="-3.79335" x2="23.9072" y2="-3.79335" transform="matrix(0.70719 0.707023 0.707023 -0.70719 204.369 179.942)" stroke="#72777C" stroke-width="7.58671"/>
<circle r="11.0883" transform="matrix(0.587786 0.809017 0.809017 -0.587786 226.37 204.693)" stroke="#7B58E5" stroke-width="7.00311"/>
<line x1="220.144" y1="154.706" x2="203.237" y2="171.609" stroke="#72777C" stroke-width="7.58671"/>
<circle cx="195.462" cy="176.774" r="11.0883" transform="rotate(126 195.462 176.774)" stroke="#72777C" stroke-width="7.00311"/>
<circle cx="226.37" cy="148.855" r="11.0883" transform="rotate(126 226.37 148.855)" stroke="#72777C" stroke-width="7.00311"/>
<line y1="-3.79335" x2="23.9072" y2="-3.79335" transform="matrix(0.70719 0.707023 0.707023 -0.70719 142.552 179.942)" stroke="#787878" stroke-width="7.58671"/>
<line x1="127.419" y1="182.625" x2="110.512" y2="199.528" stroke="#787878" stroke-width="7.58671"/>
<circle cx="102.736" cy="204.693" r="11.0883" transform="rotate(126 102.736 204.693)" stroke="#787878" stroke-width="7.00311"/>
<line y1="-3.79335" x2="23.9072" y2="-3.79335" transform="matrix(0.70719 0.707023 0.707023 -0.70719 111.644 152.023)" stroke="#787878" stroke-width="7.58671"/>
<circle r="11.0883" transform="matrix(0.587786 0.809017 0.809017 -0.587786 133.645 176.774)" stroke="#7B58E5" stroke-width="7.00311"/>
<circle r="11.0883" transform="matrix(0.587786 0.809017 0.809017 -0.587786 102.736 148.855)" stroke="#72777C" stroke-width="7.00311"/>
<circle cx="164.554" cy="204.01" r="11.0883" transform="rotate(126 164.554 204.01)" stroke="#72777C" stroke-width="7.00311"/>
</svg>
