<svg width="554" height="594" viewBox="0 0 554 594" fill="none" xmlns="http://www.w3.org/2000/svg">
<circle cx="277.168" cy="163.99" r="158.737" stroke="#D6CBFF" stroke-width="10.5047"/>
<path fill-rule="evenodd" clip-rule="evenodd" d="M282.42 282.345C280.679 282.421 278.928 282.459 277.168 282.459C211.739 282.459 158.699 229.418 158.699 163.99C158.699 98.5608 211.739 45.5203 277.168 45.5203C342.597 45.5203 395.638 98.5608 395.638 163.99C395.638 220.393 356.22 267.591 303.43 279.538V290.288C362.067 278.159 406.142 226.221 406.142 163.99C406.142 92.7593 348.399 35.0156 277.168 35.0156C205.938 35.0156 148.194 92.7593 148.194 163.99C148.194 235.22 205.938 292.964 277.168 292.964C278.927 292.964 280.678 292.928 282.42 292.859V282.345Z" fill="#7B58E5"/>
<line x1="277.168" y1="292.964" x2="277.168" y2="213.547" stroke="#7B58E5" stroke-width="10.5047"/>
<path d="M276.876 99.2109L276.876 135.413" stroke="#72777C" stroke-width="7.58671"/>
<circle cx="277.121" cy="90.4103" r="11.0883" transform="rotate(126 277.121 90.4103)" stroke="#72777C" stroke-width="7.00311"/>
<line x1="302.316" y1="125.441" x2="285.409" y2="142.344" stroke="#72777C" stroke-width="7.58671"/>
<line x1="276.876" y1="159.904" x2="276.876" y2="196.087" stroke="#72777C" stroke-width="7.58671"/>
<circle cx="277.168" cy="147.168" r="11.0883" transform="rotate(126 277.168 147.168)" stroke="#72777C" stroke-width="7.00311"/>
<circle cx="308.542" cy="119.59" r="11.0883" transform="rotate(126 308.542 119.59)" stroke="#7B58E5" stroke-width="7.00311"/>
<line y1="-3.79335" x2="23.9072" y2="-3.79335" transform="matrix(0.70719 0.707023 0.707023 -0.70719 254.702 122.758)" stroke="#72777C" stroke-width="7.58671"/>
<circle r="11.0883" transform="matrix(0.587786 0.809017 0.809017 -0.587786 245.795 119.589)" stroke="#72777C" stroke-width="7.00311"/>
<line x1="301.851" y1="182.541" x2="284.944" y2="199.444" stroke="#787878" stroke-width="7.58671"/>
<line y1="-3.79335" x2="23.9072" y2="-3.79335" transform="matrix(0.70719 0.707023 0.707023 -0.70719 316.984 179.858)" stroke="#72777C" stroke-width="7.58671"/>
<circle r="11.0883" transform="matrix(0.587786 0.809017 0.809017 -0.587786 338.985 204.609)" stroke="#7B58E5" stroke-width="7.00311"/>
<line x1="332.759" y1="154.622" x2="315.852" y2="171.525" stroke="#72777C" stroke-width="7.58671"/>
<circle cx="308.076" cy="176.69" r="11.0883" transform="rotate(126 308.076 176.69)" stroke="#72777C" stroke-width="7.00311"/>
<circle cx="338.985" cy="148.771" r="11.0883" transform="rotate(126 338.985 148.771)" stroke="#72777C" stroke-width="7.00311"/>
<line y1="-3.79335" x2="23.9072" y2="-3.79335" transform="matrix(0.70719 0.707023 0.707023 -0.70719 255.167 179.858)" stroke="#787878" stroke-width="7.58671"/>
<line x1="240.034" y1="182.541" x2="223.127" y2="199.444" stroke="#787878" stroke-width="7.58671"/>
<circle cx="215.351" cy="204.609" r="11.0883" transform="rotate(126 215.351 204.609)" stroke="#787878" stroke-width="7.00311"/>
<line y1="-3.79335" x2="23.9072" y2="-3.79335" transform="matrix(0.70719 0.707023 0.707023 -0.70719 224.259 151.939)" stroke="#787878" stroke-width="7.58671"/>
<circle r="11.0883" transform="matrix(0.587786 0.809017 0.809017 -0.587786 246.259 176.69)" stroke="#7B58E5" stroke-width="7.00311"/>
<circle r="11.0883" transform="matrix(0.587786 0.809017 0.809017 -0.587786 215.351 148.771)" stroke="#72777C" stroke-width="7.00311"/>
<circle cx="277.168" cy="203.926" r="11.0883" transform="rotate(126 277.168 203.926)" stroke="#72777C" stroke-width="7.00311"/>
<path d="M183.906 454.94C179.222 454.94 175.023 454.179 171.312 452.658C167.601 451.137 164.619 448.886 162.368 445.905C160.178 442.923 159.022 439.334 158.9 435.135H175.51C175.754 437.508 176.575 439.334 177.974 440.611C179.374 441.828 181.199 442.437 183.45 442.437C185.762 442.437 187.587 441.919 188.926 440.885C190.264 439.79 190.934 438.299 190.934 436.413C190.934 434.831 190.386 433.523 189.291 432.489C188.257 431.454 186.949 430.603 185.367 429.933C183.846 429.264 181.655 428.504 178.796 427.652C174.658 426.374 171.282 425.096 168.665 423.819C166.049 422.541 163.798 420.655 161.912 418.16C160.026 415.666 159.083 412.411 159.083 408.395C159.083 402.433 161.243 397.778 165.562 394.432C169.882 391.025 175.51 389.321 182.446 389.321C189.504 389.321 195.193 391.025 199.512 394.432C203.832 397.778 206.144 402.463 206.449 408.486H189.565C189.443 406.418 188.683 404.806 187.283 403.649C185.884 402.433 184.089 401.824 181.899 401.824C180.012 401.824 178.491 402.341 177.335 403.376C176.179 404.349 175.601 405.779 175.601 407.665C175.601 409.734 176.575 411.346 178.522 412.502C180.469 413.658 183.511 414.905 187.648 416.244C191.785 417.643 195.132 418.982 197.687 420.259C200.303 421.537 202.555 423.393 204.441 425.827C206.327 428.26 207.27 431.394 207.27 435.227C207.27 438.877 206.327 442.193 204.441 445.174C202.615 448.156 199.938 450.529 196.41 452.293C192.881 454.057 188.713 454.94 183.906 454.94ZM247.995 454.301L232.48 432.945V454.301H216.874V386.766H232.48V424.093L247.904 403.376H267.16L245.987 428.93L267.343 454.301H247.995ZM281.138 398.082C278.401 398.082 276.149 397.291 274.385 395.71C272.681 394.067 271.83 392.059 271.83 389.686C271.83 387.252 272.681 385.245 274.385 383.663C276.149 382.02 278.401 381.199 281.138 381.199C283.816 381.199 286.006 382.02 287.709 383.663C289.474 385.245 290.356 387.252 290.356 389.686C290.356 392.059 289.474 394.067 287.709 395.71C286.006 397.291 283.816 398.082 281.138 398.082ZM288.896 403.376V454.301H273.29V403.376H288.896ZM315.811 386.766V454.301H300.205V386.766H315.811ZM342.727 386.766V454.301H327.121V386.766H342.727ZM374.753 455.031C370.312 455.031 366.357 454.27 362.889 452.749C359.421 451.228 356.683 449.16 354.676 446.543C352.668 443.866 351.542 440.885 351.299 437.6H366.722C366.905 439.364 367.726 440.794 369.186 441.889C370.647 442.984 372.441 443.532 374.571 443.532C376.518 443.532 378.009 443.167 379.043 442.437C380.138 441.646 380.686 440.642 380.686 439.425C380.686 437.965 379.925 436.9 378.404 436.231C376.883 435.5 374.419 434.71 371.012 433.858C367.361 433.006 364.319 432.124 361.885 431.211C359.452 430.238 357.353 428.747 355.588 426.739C353.824 424.671 352.942 421.902 352.942 418.434C352.942 415.514 353.732 412.867 355.314 410.494C356.957 408.061 359.33 406.144 362.433 404.745C365.597 403.345 369.339 402.646 373.658 402.646C380.047 402.646 385.066 404.227 388.717 407.391C392.428 410.555 394.558 414.753 395.105 419.986H380.686C380.442 418.221 379.651 416.822 378.313 415.788C377.035 414.753 375.332 414.236 373.202 414.236C371.377 414.236 369.977 414.601 369.004 415.331C368.03 416.001 367.544 416.944 367.544 418.16C367.544 419.621 368.304 420.716 369.825 421.446C371.407 422.176 373.841 422.906 377.126 423.636C380.899 424.61 383.971 425.583 386.344 426.557C388.717 427.469 390.785 428.99 392.55 431.12C394.375 433.188 395.318 435.987 395.379 439.516C395.379 442.497 394.527 445.174 392.824 447.547C391.181 449.859 388.778 451.685 385.614 453.023C382.511 454.362 378.891 455.031 374.753 455.031Z" fill="#6C4DEA"/>
<path d="M148.561 556.444H138.157L106.854 509.079V556.444H96.4499V492.925H106.854L138.157 540.199V492.925H148.561V556.444ZM208.312 530.069C208.312 531.955 208.19 533.659 207.947 535.18H169.525C169.829 539.196 171.32 542.42 173.997 544.854C176.674 547.288 179.959 548.504 183.853 548.504C189.451 548.504 193.406 546.162 195.718 541.477H206.943C205.422 546.101 202.654 549.904 198.638 552.885C194.683 555.805 189.755 557.266 183.853 557.266C179.047 557.266 174.727 556.201 170.894 554.071C167.122 551.881 164.14 548.839 161.95 544.945C159.821 540.99 158.756 536.427 158.756 531.256C158.756 526.084 159.79 521.551 161.859 517.657C163.988 513.703 166.939 510.66 170.711 508.531C174.544 506.401 178.925 505.337 183.853 505.337C188.599 505.337 192.828 506.371 196.539 508.44C200.25 510.508 203.14 513.429 205.209 517.201C207.278 520.912 208.312 525.202 208.312 530.069ZM197.452 526.784C197.391 522.951 196.022 519.878 193.345 517.566C190.668 515.254 187.352 514.098 183.397 514.098C179.807 514.098 176.735 515.254 174.179 517.566C171.624 519.817 170.103 522.89 169.616 526.784H197.452ZM230.689 514.646V542.481C230.689 544.367 231.115 545.736 231.966 546.588C232.879 547.379 234.4 547.774 236.529 547.774H242.918V556.444H234.704C230.019 556.444 226.43 555.349 223.935 553.159C221.441 550.969 220.193 547.409 220.193 542.481V514.646H214.261V506.158H220.193V493.655H230.689V506.158H242.918V514.646H230.689ZM320.042 506.158L304.436 556.444H293.484L283.354 519.3L273.224 556.444H262.272L246.575 506.158H257.161L267.657 546.588L278.335 506.158H289.195L299.416 546.405L309.821 506.158H320.042ZM349.629 557.266C344.884 557.266 340.594 556.201 336.761 554.071C332.928 551.881 329.916 548.839 327.726 544.945C325.536 540.99 324.441 536.427 324.441 531.256C324.441 526.145 325.566 521.612 327.817 517.657C330.068 513.703 333.141 510.66 337.035 508.531C340.929 506.401 345.279 505.337 350.086 505.337C354.892 505.337 359.242 506.401 363.136 508.531C367.03 510.66 370.103 513.703 372.354 517.657C374.605 521.612 375.731 526.145 375.731 531.256C375.731 536.366 374.575 540.899 372.263 544.854C369.951 548.809 366.787 551.881 362.771 554.071C358.816 556.201 354.436 557.266 349.629 557.266ZM349.629 548.231C352.306 548.231 354.801 547.592 357.113 546.314C359.486 545.036 361.402 543.12 362.863 540.564C364.323 538.009 365.053 534.906 365.053 531.256C365.053 527.605 364.353 524.533 362.954 522.038C361.554 519.483 359.699 517.566 357.387 516.288C355.075 515.011 352.58 514.372 349.903 514.372C347.226 514.372 344.731 515.011 342.419 516.288C340.168 517.566 338.373 519.483 337.035 522.038C335.696 524.533 335.027 527.605 335.027 531.256C335.027 536.671 336.396 540.869 339.134 543.85C341.933 546.77 345.431 548.231 349.629 548.231ZM396.42 513.459C397.941 510.904 399.949 508.926 402.443 507.527C404.998 506.067 408.01 505.337 411.478 505.337V516.106H408.832C404.755 516.106 401.652 517.14 399.523 519.209C397.454 521.277 396.42 524.867 396.42 529.978V556.444H386.016V506.158H396.42V513.459ZM440.937 531.347L464.118 556.444H450.063L431.446 534.815V556.444H421.042V488.909H431.446V528.153L449.698 506.158H464.118L440.937 531.347Z" fill="#72777C"/>
</svg>
